<?xml version="1.0" encoding="UTF-8"?>
<svg version="1.1" xmlns="http://www.w3.org/2000/svg" width="1024" height="1024">
<path d="M0 0 C337.92 0 675.84 0 1024 0 C1024 337.92 1024 675.84 1024 1024 C686.08 1024 348.16 1024 0 1024 C0 686.08 0 348.16 0 0 Z " fill="#FEFEFE" transform="translate(0,0)"/>
<path d="M0 0 C10.60433769 7.33115765 15.75694289 19.05993091 20.875 30.5 C21.9985138 32.96487048 23.1241968 35.42860186 24.25390625 37.890625 C24.54905624 38.53505554 24.84420624 39.17948608 25.14830017 39.84344482 C28.91481478 48.03729242 32.86433186 56.14256445 36.8125 64.25 C37.16254089 64.97018311 37.51258179 65.69036621 37.87322998 66.43237305 C40.23676496 71.29420047 42.61218102 76.1500532 45 81 C45.35767456 81.72661835 45.71534912 82.45323669 46.0838623 83.20187378 C47.15806925 85.37972824 48.23644303 87.5554638 49.31640625 89.73046875 C49.64018753 90.38658142 49.96396881 91.04269409 50.29756165 91.71868896 C52.82088948 96.78041468 55.60690449 101.47900571 59 106 C59.65162109 106.91458984 59.65162109 106.91458984 60.31640625 107.84765625 C66.4401226 115.78580708 78.08269293 123.12490651 88 125 C90.31536932 125.14819068 92.63403811 125.24761977 94.953125 125.31640625 C95.61334656 125.33718735 96.27356812 125.35796844 96.95379639 125.37937927 C99.05243015 125.44450147 101.15118372 125.50358502 103.25 125.5625 C104.67709547 125.60572079 106.10417905 125.6493362 107.53125 125.69335938 C111.02070722 125.80014411 114.51029753 125.90151566 118 126 C118.12407227 125.35861084 118.24814453 124.71722168 118.37597656 124.05639648 C120.68507586 112.28853418 123.95413607 100.90033957 127.64306641 89.50170898 C129.05026093 85.12264315 130.36880803 80.73503826 131.578125 76.296875 C131.8373877 75.35086426 132.09665039 74.40485352 132.36376953 73.43017578 C132.85954403 71.60321974 133.34541653 69.77353852 133.81982422 67.94091797 C135.11087966 63.19910683 136.26975406 59.43210361 140 56 C142.21875 55.37109375 142.21875 55.37109375 144.5 55.4375 C145.62921875 55.43556641 145.62921875 55.43556641 146.78125 55.43359375 C150.03145363 56.26331123 151.01387514 57.25980698 153 60 C154.16279004 63.31516444 154.89616748 66.69181522 155.625 70.125 C155.93050781 71.47464844 155.93050781 71.47464844 156.2421875 72.8515625 C157.21358399 77.1854853 158.1068525 81.52998597 158.94921875 85.890625 C160.13085473 91.86093456 161.67195902 97.73235401 163.1875 103.625 C166.33074339 115.98194884 169.124882 128.39525588 171.77807617 140.86572266 C171.91993851 141.52854248 172.06180084 142.1913623 172.20796204 142.87426758 C172.59292736 144.67554758 172.9740824 146.47764071 173.35498047 148.27978516 C173.87761053 150.9458731 173.87761053 150.9458731 175 153 C175.24645264 152.29391602 175.49290527 151.58783203 175.74682617 150.86035156 C176.87742047 147.65088853 178.03212676 144.4506219 179.1875 141.25 C179.76854492 139.58324219 179.76854492 139.58324219 180.36132812 137.8828125 C180.75126953 136.81289063 181.14121094 135.74296875 181.54296875 134.640625 C182.0692688 133.16384277 182.0692688 133.16384277 182.60620117 131.65722656 C184.41082243 128.21678203 185.55139806 126.87547856 189 125 C192.88772715 124.46034945 196.72627193 124.53514463 200.64453125 124.609375 C201.7694548 124.61503479 202.89437836 124.62069458 204.0533905 124.62652588 C207.64019634 124.64888532 211.22599696 124.69908333 214.8125 124.75 C217.24673035 124.77006545 219.68097638 124.78831614 222.11523438 124.8046875 C228.07716489 124.84874877 234.03851062 124.91565757 240 125 C240.30035156 124.36989014 240.60070312 123.73978027 240.91015625 123.09057617 C242.83862568 119.39131907 246.2891688 116.8554156 250 115 C257.42039044 114.3036249 263.8734236 114.42726544 270 119 C275.58275264 124.87658173 276.58064256 129.75417752 276.4375 137.734375 C275.6340972 143.73120301 272.57009441 146.71547164 268.20703125 150.59375 C263.60565514 154.00920443 259.36357716 154.76022448 253.6875 154.4921875 C248.34315968 153.5134275 244.6092994 150.76017122 241 146.8125 C240 145 240 145 240 143 C226.14 143 212.28 143 198 143 C196.515 147.95 196.515 147.95 195 153 C194.25582539 155.15040271 193.49035231 157.29366039 192.6953125 159.42578125 C192.06689453 161.11670898 192.06689453 161.11670898 191.42578125 162.84179688 C190.99652344 163.98712891 190.56726563 165.13246094 190.125 166.3125 C189.49271484 168.0130957 189.49271484 168.0130957 188.84765625 169.74804688 C187.99900886 172.02538045 187.14390333 174.30031826 186.28222656 176.57275391 C185.40822545 178.9088597 184.56227761 181.25560785 183.74121094 183.61083984 C183.12294434 185.34068115 183.12294434 185.34068115 182.4921875 187.10546875 C181.95247314 188.66044067 181.95247314 188.66044067 181.40185547 190.24682617 C179.73879033 193.5130027 178.07768486 195.03905166 175 197 C171.04044308 197.06946591 168.92064859 196.83455741 165.953125 194.14453125 C163.10709716 189.56242642 162.35705513 184.87559955 161.3125 179.625 C160.8016524 177.19615648 160.28848707 174.76779969 159.7734375 172.33984375 C159.63673141 171.68794571 159.50002533 171.03604767 159.35917664 170.36439514 C157.69509011 162.46052979 155.85815229 154.59683961 154.02862549 146.72994995 C153.05736367 142.55252128 152.09139391 138.37386947 151.125 134.1953125 C150.94079498 133.39941208 150.75658997 132.60351166 150.56680298 131.78349304 C148.34887633 122.19558488 146.1682747 112.5992463 144 103 C143.67 103 143.34 103 143 103 C142.50911206 104.67683845 142.01822539 106.35367728 141.52734375 108.03051758 C141.08707042 109.52846849 140.64430219 111.02568805 140.19921875 112.5222168 C138.92333655 116.81730503 137.68734053 121.11878293 136.5078125 125.44140625 C136.00525593 127.23178419 135.5026527 129.02214904 135 130.8125 C134.77554199 131.66553711 134.55108398 132.51857422 134.31982422 133.39746094 C134.09053223 134.20086914 133.86124023 135.00427734 133.625 135.83203125 C133.43164062 136.54077393 133.23828125 137.2495166 133.0390625 137.97973633 C131.47881516 141.01334694 129.94252636 142.24858822 127 144 C123.92084934 144.56226175 120.90429811 144.53726711 117.78125 144.49609375 C116.88692261 144.49754898 115.99259521 144.49900421 115.07116699 144.50050354 C113.17827093 144.49884603 111.28536119 144.48730129 109.39257812 144.46655273 C106.53715611 144.43787319 103.68362589 144.44589255 100.828125 144.45898438 C80.47878549 144.43696309 64.60160159 140.37945691 49.7109375 125.7421875 C48.81632812 124.83726562 47.92171875 123.93234375 47 123 C46.27039063 122.28070313 45.54078125 121.56140625 44.7890625 120.8203125 C33.26737182 108.75213847 26.81571545 92.67804046 19.80273438 77.79931641 C16.70406578 71.24954348 13.52771196 64.73696699 10.35961914 58.22058105 C9.28461095 56.00871326 8.21148094 53.79594289 7.13867188 51.58300781 C5.44286809 48.08756226 3.73894466 44.59616936 2.0300293 41.1071167 C1.32670876 39.66834359 0.62580477 38.2283873 -0.07299805 36.78741455 C-1.13123616 34.60660538 -2.19757948 32.42992583 -3.265625 30.25390625 C-3.581828 29.5980101 -3.89803101 28.94211395 -4.22381592 28.26634216 C-7.24533574 22.1504294 -10.34538768 17.58652989 -16.59375 14.73046875 C-22.7780552 12.85309039 -29.51459527 12.96025269 -35.4375 15.625 C-42.5695276 19.856867 -45.52768289 26.37736849 -47.556427 34.12493896 C-48.05979893 36.3461374 -48.5235228 38.57190495 -48.97265625 40.8046875 C-49.31833074 42.45573516 -49.6640347 44.10677666 -50.00976562 45.7578125 C-50.54058001 48.33160769 -51.06882939 50.90591407 -51.59594727 53.48046875 C-52.11116022 55.98570652 -52.63529537 58.48895633 -53.16015625 60.9921875 C-53.31541275 61.76609833 -53.47066925 62.54000916 -53.63063049 63.33737183 C-54.77404156 68.77404156 -54.77404156 68.77404156 -57 71 C-57.29132813 70.11957031 -57.58265625 69.23914063 -57.8828125 68.33203125 C-60.7791619 60.12570796 -62.718901 55.91850208 -70.375 51.6875 C-70.91125 51.460625 -71.4475 51.23375 -72 51 C-67.28663389 14.66146776 -67.28663389 14.66146776 -54.98046875 3.5234375 C-51.1958943 0.61222639 -47.22097672 -1.77843331 -43 -4 C-42.38769531 -4.34289062 -41.77539062 -4.68578125 -41.14453125 -5.0390625 C-28.52409155 -11.00103622 -11.32537323 -6.87219249 0 0 Z " fill="#F67A5A" transform="translate(461,325)"/>
<path d="M0 0 C0.66 -0.0103125 1.32 -0.020625 2 -0.03125 C4.88735661 0.7357041 6.06356495 2.25742059 8 4.5 C8.92553711 6.88745117 8.92553711 6.88745117 9.52734375 9.54296875 C9.7596167 10.52628174 9.99188965 11.50959473 10.23120117 12.52270508 C10.46427979 13.5670874 10.6973584 14.61146973 10.9375 15.6875 C11.4503073 17.86264539 11.96595044 20.03712409 12.484375 22.2109375 C12.73767578 23.28053711 12.99097656 24.35013672 13.25195312 25.45214844 C14.27283631 29.61164767 15.44849952 33.71346551 16.6875 37.8125 C16.8942334 38.49892578 17.1009668 39.18535156 17.31396484 39.89257812 C17.51199707 40.54935547 17.7100293 41.20613281 17.9140625 41.8828125 C19.09851679 45.82815306 20.1867969 49.79233287 21.2578125 53.76953125 C23.39566438 61.6345758 25.66174492 69.46129076 28.0625 77.25 C28.38863281 78.30960937 28.71476562 79.36921875 29.05078125 80.4609375 C29.65896933 82.40814049 30.28020459 84.351345 30.91796875 86.2890625 C33.88208935 95.50149367 33.88208935 95.50149367 33 100.5 C30.27750725 103.86729367 28.74451929 105.21600849 24.48046875 105.91015625 C17.99409498 106.12858465 17.99409498 106.12858465 15.33203125 104.4453125 C13.3284129 101.51920711 12.67483177 98.27908403 11.875 94.875 C11.11374268 90.32356948 11.11374268 90.32356948 9 86.5 C8.79431396 87.45849854 8.58862793 88.41699707 8.37670898 89.40454102 C4.82845109 105.92764411 1.27315946 122.44954286 -2.42697144 138.93942261 C-2.8667416 140.90066994 -3.30363773 142.862561 -3.74047852 144.82446289 C-4.00916748 146.01547607 -4.27785645 147.20648926 -4.5546875 148.43359375 C-4.78655762 149.46540771 -5.01842773 150.49722168 -5.25732422 151.56030273 C-6.02080206 154.58233979 -7.01432224 157.54296673 -8 160.5 C-14.6 160.5 -21.2 160.5 -28 160.5 C-27.31116645 154.30049803 -26.45874741 148.71693002 -24.9375 142.75 C-23.12931056 135.56064963 -21.55501763 128.35267313 -20.13671875 121.078125 C-19.63388229 118.55947572 -19.12861457 116.04132581 -18.62258911 113.52331543 C-18.29234298 111.84861004 -17.97215129 110.17188885 -17.662323 108.49328613 C-17.22010766 106.10419164 -16.74246438 103.72454602 -16.2578125 101.34375 C-16.1348027 100.62680969 -16.01179291 99.90986938 -15.88505554 99.17120361 C-14.79945697 94.08333785 -12.82508351 92.02888862 -8.64718628 89.31799316 C-7 88.5 -7 88.5 -5 88.5 C-3.13940773 83.96197008 -1.44474216 79.37404602 0.1875 74.75 C0.47302734 73.98945313 0.75855469 73.22890625 1.05273438 72.4453125 C4.37248831 62.91414548 1.79884446 54.91749551 -1 45.5 C-2.2745085 49.1237181 -3.54391578 52.74920412 -4.8125 56.375 C-5.16892578 57.38820313 -5.52535156 58.40140625 -5.89257812 59.4453125 C-6.24384766 60.45078125 -6.59511719 61.45625 -6.95703125 62.4921875 C-7.48611084 63.99797363 -7.48611084 63.99797363 -8.02587891 65.53417969 C-9.19446321 69.09206493 -10.09543744 72.69258752 -10.9050293 76.34814453 C-12.6045682 79.68810794 -14.69608771 80.80784479 -18 82.5 C-20.81593495 82.82231235 -23.23359578 82.94430679 -26.03125 82.86328125 C-27.57942721 82.86314687 -29.12760467 82.86382254 -30.67578125 82.86523438 C-33.09209711 82.84434899 -35.5074053 82.81235303 -37.92333984 82.7644043 C-47.00442003 82.21085698 -47.00442003 82.21085698 -55.25390625 85.03271484 C-56.67638796 86.78853386 -57.81611079 88.58085624 -59 90.5 C-64.4609201 93.62299064 -70.90285291 93.11509681 -77 92.5 C-81.92265695 90.2144807 -84.81049249 86.78305294 -88 82.5 C-89.91957414 76.74127759 -90.12998497 69.82131096 -88.1640625 64.04296875 C-85.32687698 59.06361295 -81.41164284 55.45569271 -76 53.5 C-69.53679679 52.34648553 -64.45253426 52.71988534 -58.875 56.3125 C-56.2152668 58.28537903 -54.87055321 59.69417019 -53 62.5 C-50.19189856 63.01104922 -50.19189856 63.01104922 -46.8984375 63.01171875 C-45.08085937 63.06489258 -45.08085937 63.06489258 -43.2265625 63.11914062 C-41.95554687 63.14169922 -40.68453125 63.16425781 -39.375 63.1875 C-38.09625 63.22166016 -36.8175 63.25582031 -35.5 63.29101562 C-32.33342068 63.37372479 -29.16712636 63.44280085 -26 63.5 C-25.89171875 62.50742187 -25.7834375 61.51484375 -25.671875 60.4921875 C-25.07605249 56.34017956 -23.72265035 52.53661274 -22.25 48.625 C-20.13016405 42.8189625 -18.19756424 37.00571202 -16.5 31.0625 C-14.72426683 24.91185552 -12.89247417 18.78383516 -10.9375 12.6875 C-10.58751953 11.54873413 -10.58751953 11.54873413 -10.23046875 10.38696289 C-8.48716453 5.04022463 -6.44727899 -0.10073873 0 0 Z " fill="#47B09D" transform="translate(383,386.5)"/>
<path d="M0 0 C7.09123484 2.49506411 10.01684407 7.66464428 13.14483643 14.12789917 C13.51469666 14.90811432 13.88455688 15.68832947 14.265625 16.4921875 C14.66271667 17.31518341 15.05980835 18.13817932 15.46893311 18.9861145 C16.7353632 21.61287279 17.99324775 24.24359949 19.25 26.875 C26.13143738 41.26155904 26.13143738 41.26155904 33.296875 55.5078125 C33.89338867 56.67199707 34.48990234 57.83618164 35.10449219 59.03564453 C37.77879354 63.21794322 41.32597172 66.25163228 46 68 C53.02500614 68.88277194 59.56465489 68.97610474 65.375 64.58203125 C68.32225864 61.71270493 70.13447471 58.6508704 72 55 C72.48847412 54.04601318 72.48847412 54.04601318 72.98681641 53.07275391 C75.36930838 48.40230486 77.68616678 43.70610147 80 39 C90.89 39.495 90.89 39.495 102 40 C99.97770647 46.0668806 97.49063519 51.61452281 94.75 57.375 C94.28464844 58.37789063 93.81929687 59.38078125 93.33984375 60.4140625 C87.07496085 73.59965626 79.6772762 82.54835887 65.9296875 88.0546875 C54.73739023 91.66606875 43.72321417 90.60498127 33 86 C19.54366828 78.61118736 14.04652809 65.58579025 7.69091797 52.29077148 C6.61333332 50.03811113 5.52425536 47.79127561 4.43359375 45.54492188 C3.73891198 44.10449025 3.04487722 42.66374637 2.3515625 41.22265625 C1.8672728 40.22263329 1.8672728 40.22263329 1.37319946 39.20240784 C-0.06738498 36.17821377 -1.37988015 33.30539516 -2 30 C-2.66 30 -3.32 30 -4 30 C-4.11085938 30.91910156 -4.22171875 31.83820313 -4.3359375 32.78515625 C-5.0949381 38.07568134 -6.39305098 43.24104474 -7.625 48.4375 C-10.38751952 60.22822274 -13.00127682 72.04631056 -15.55126953 83.88452148 C-17.22864347 91.62975399 -19.03605824 99.32223374 -21 107 C-27.93 107 -34.86 107 -42 107 C-40.45212737 98.0083379 -38.49397933 89.13579998 -36.4375 80.25 C-36.08809864 78.73238627 -35.7389008 77.21472567 -35.38989258 75.69702148 C-34.65003718 72.4817632 -33.90859065 69.26687732 -33.16601562 66.05224609 C-32.16971677 61.73807021 -31.17757216 57.42295061 -30.18675232 53.10751343 C-29.38319437 49.60813712 -28.5784755 46.10902846 -27.77346802 42.60998535 C-27.38751669 40.93206896 -27.00182888 39.25409193 -26.61642456 37.5760498 C-24.89238558 30.0735058 -23.16213602 22.57204585 -21.3515625 15.08984375 C-21.13193848 14.17968506 -20.91231445 13.26952637 -20.68603516 12.33178711 C-19.30565716 7.63997564 -16.93884949 4.84943525 -13.375 1.625 C-8.79276143 -0.58126302 -4.99945212 -0.66767927 0 0 Z " fill="#47AF9B" transform="translate(464,440)"/>
<path d="M0 0 C0.75539063 -0.00322266 1.51078125 -0.00644531 2.2890625 -0.00976562 C13.40059056 0.09524022 23.61895144 3.89464371 31.8125 11.5625 C40.54494909 21.23280161 43.15151574 31.93378813 46 44.3125 C46.19948242 45.16392578 46.39896484 46.01535156 46.60449219 46.89257812 C48.6237549 55.52240621 50.52974868 64.17701241 52.4375 72.83203125 C52.93736265 75.09638449 53.43736409 77.3607071 53.9375 79.625 C54.18443604 80.74592041 54.43137207 81.86684082 54.68579102 83.02172852 C56.71954801 92.19433399 58.89833733 101.32841526 61.17163086 110.44458008 C61.41147705 111.42064209 61.65132324 112.3967041 61.8984375 113.40234375 C62.11161621 114.25691162 62.32479492 115.11147949 62.54443359 115.99194336 C63 118.3125 63 118.3125 63 122.3125 C62.19175781 122.41046875 61.38351562 122.5084375 60.55078125 122.609375 C52.50447422 123.67907136 52.50447422 123.67907136 46 128.3125 C45.34 128.3125 44.68 128.3125 44 128.3125 C40.77530307 115.75069828 37.70081472 103.17195206 34.9375 90.5 C33.10879938 82.12504699 31.16844338 73.81382666 28.89428711 65.54858398 C27.63842545 60.92775329 26.54046786 56.29471175 25.53125 51.61328125 C25.14936523 49.86349976 25.14936523 49.86349976 24.75976562 48.07836914 C24.26529507 45.79017171 23.78410871 43.49904979 23.31835938 41.20483398 C21.75117167 33.99632236 20.03485488 28.4568498 14 23.75390625 C7.45881203 20.87936075 1.06854618 20.17523391 -6 21.3125 C-16.69293359 25.62112324 -20.58902966 36.19888661 -25.1875 46 C-26.23720686 48.2114478 -27.28806462 50.42234953 -28.33984375 52.6328125 C-28.62211823 53.22709549 -28.9043927 53.82137848 -29.19522095 54.43367004 C-32.77572732 61.96284737 -36.42428432 69.45901356 -40.07266235 76.95547485 C-41.2176901 79.30860051 -42.36122942 81.662445 -43.50463867 84.01635742 C-48.2695754 93.81563426 -53.1061484 103.57698242 -58 113.3125 C-63.73477249 108.86512542 -68.70871127 103.87342425 -72 97.3125 C-71.49603909 93.32756023 -69.40467646 89.80632557 -67.640625 86.25 C-67.29979889 85.55435944 -66.95897278 84.85871887 -66.6078186 84.14199829 C-65.87384359 82.64414719 -65.13828415 81.14707165 -64.40130615 79.6506958 C-62.4540131 75.69592458 -60.51867825 71.73533748 -58.5859375 67.7734375 C-58.19620758 66.97457123 -57.80647766 66.17570496 -57.40493774 65.35263062 C-53.26459381 56.84069121 -49.28987422 48.25494291 -45.37597656 39.63671875 C-37.89005831 23.27991155 -30.63719584 8.95371922 -13.31640625 1.69921875 C-8.82996402 0.05967238 -4.73731482 -0.10105194 0 0 Z " fill="#F57A59" transform="translate(594,317.6875)"/>
<path d="M0 0 C10.60433769 7.33115765 15.75694289 19.05993091 20.875 30.5 C21.9985138 32.96487048 23.1241968 35.42860186 24.25390625 37.890625 C24.54905624 38.53505554 24.84420624 39.17948608 25.14830017 39.84344482 C28.91481478 48.03729242 32.86433186 56.14256445 36.8125 64.25 C37.16254089 64.97018311 37.51258179 65.69036621 37.87322998 66.43237305 C40.23676496 71.29420047 42.61218102 76.1500532 45 81 C45.35767456 81.72661835 45.71534912 82.45323669 46.0838623 83.20187378 C47.15806925 85.37972824 48.23644303 87.5554638 49.31640625 89.73046875 C49.64018753 90.38658142 49.96396881 91.04269409 50.29756165 91.71868896 C52.82088948 96.78041468 55.60690449 101.47900571 59 106 C59.65162109 106.91458984 59.65162109 106.91458984 60.31640625 107.84765625 C65.77343912 114.92158775 73.98734535 119.31851002 82 123 C82 123.33 82 123.66 82 124 C77.83741853 124.04969106 73.67499739 124.08585642 69.51220703 124.10986328 C68.09811391 124.11987856 66.68404127 124.13349474 65.27001953 124.15087891 C63.22944054 124.17532559 61.18913697 124.18652784 59.1484375 124.1953125 C57.92302246 124.20578613 56.69760742 124.21625977 55.43505859 124.22705078 C51.21490322 123.94810661 47.56813959 123.23478237 44.19921875 120.58203125 C33.41605463 107.9598779 26.81770643 92.68226451 19.80273438 77.79931641 C16.70406578 71.24954348 13.52771196 64.73696699 10.35961914 58.22058105 C9.28461095 56.00871326 8.21148094 53.79594289 7.13867188 51.58300781 C5.44286809 48.08756226 3.73894466 44.59616936 2.0300293 41.1071167 C1.32670876 39.66834359 0.62580477 38.2283873 -0.07299805 36.78741455 C-1.13123616 34.60660538 -2.19757948 32.42992583 -3.265625 30.25390625 C-3.581828 29.5980101 -3.89803101 28.94211395 -4.22381592 28.26634216 C-7.24533574 22.1504294 -10.34538768 17.58652989 -16.59375 14.73046875 C-22.7780552 12.85309039 -29.51459527 12.96025269 -35.4375 15.625 C-42.5695276 19.856867 -45.52768289 26.37736849 -47.556427 34.12493896 C-48.05979893 36.3461374 -48.5235228 38.57190495 -48.97265625 40.8046875 C-49.31833074 42.45573516 -49.6640347 44.10677666 -50.00976562 45.7578125 C-50.54058001 48.33160769 -51.06882939 50.90591407 -51.59594727 53.48046875 C-52.11116022 55.98570652 -52.63529537 58.48895633 -53.16015625 60.9921875 C-53.31541275 61.76609833 -53.47066925 62.54000916 -53.63063049 63.33737183 C-54.77404156 68.77404156 -54.77404156 68.77404156 -57 71 C-57.29132813 70.11957031 -57.58265625 69.23914063 -57.8828125 68.33203125 C-60.7791619 60.12570796 -62.718901 55.91850208 -70.375 51.6875 C-70.91125 51.460625 -71.4475 51.23375 -72 51 C-67.28663389 14.66146776 -67.28663389 14.66146776 -54.98046875 3.5234375 C-51.1958943 0.61222639 -47.22097672 -1.77843331 -43 -4 C-42.38769531 -4.34289062 -41.77539062 -4.68578125 -41.14453125 -5.0390625 C-28.52409155 -11.00103622 -11.32537323 -6.87219249 0 0 Z " fill="#48B09D" transform="translate(461,325)"/>
<path d="M0 0 C5.6524268 2.28142527 7.30275922 6.69999604 9.79296875 11.90234375 C10.22507156 12.77645401 10.65717438 13.65056427 11.10237122 14.55116272 C12.47739342 17.34029793 13.83263126 20.13852831 15.1875 22.9375 C16.11003306 24.81769328 17.03384741 26.69725846 17.95898438 28.57617188 C19.9958441 32.71859727 22.0202733 36.86682924 24.03385925 41.02061462 C24.69981153 42.38498747 25.39881012 43.73355485 26.12397766 45.06739807 C27 47 27 47 27 50 C27.66 50 28.32 50 29 50 C29.3861145 48.73990112 29.3861145 48.73990112 29.7800293 47.4543457 C31.09647743 43.72682426 32.73972078 40.25061457 34.51953125 36.73046875 C34.85997971 36.05003006 35.20042816 35.36959137 35.55119324 34.66853333 C36.26961673 33.23469392 36.98997345 31.80182169 37.7121582 30.36987305 C38.8029081 28.20652419 39.88730669 26.04008603 40.97070312 23.87304688 C42.95914756 19.90432726 44.97261657 15.94894834 47 12 C47.73549072 10.55874756 47.73549072 10.55874756 48.48583984 9.08837891 C48.90687988 8.29222168 49.32791992 7.49606445 49.76171875 6.67578125 C50.10549561 6.02134033 50.44927246 5.36689941 50.8034668 4.69262695 C52.29252764 2.58618769 53.81441621 1.36267896 56 0 C60.98731848 -0.54407111 63.99386861 -0.06351224 68 3 C69.22330738 5.44661476 69.32164326 7.3846792 69.57250977 10.11376953 C69.67253799 11.18313751 69.77256622 12.25250549 69.87562561 13.35427856 C69.97983322 14.51869476 70.08404083 15.68311096 70.19140625 16.8828125 C70.30097153 18.08501434 70.4105368 19.28721619 70.52342224 20.52584839 C70.75496314 23.0829587 70.98431294 25.6402682 71.21166992 28.19775391 C71.55678381 32.06101213 71.91369889 35.9230538 72.27148438 39.78515625 C74.21238759 61.1055294 74.21238759 61.1055294 74.46484375 70.4921875 C74.50085693 71.65862793 74.53687012 72.82506836 74.57397461 74.02685547 C73.80454276 78.01245352 72.12759596 79.50423292 69 82 C65.49587381 82.57210224 63.77595516 82.44040698 60.6875 80.6875 C58.05616822 78.05616822 57.83924115 75.26312548 57.5 71.7109375 C57.37709595 70.43391968 57.37709595 70.43391968 57.25170898 69.13110352 C57.16864502 68.22158936 57.08558105 67.3120752 57 66.375 C56.91242432 65.44163818 56.82484863 64.50827637 56.73461914 63.54663086 C56.12569765 56.87346425 55.65349895 50.20096716 55.34179688 43.50732422 C55.14917776 39.60089058 54.67184873 35.85001474 54 32 C53.53625977 32.93271729 53.07251953 33.86543457 52.59472656 34.82641602 C50.85982592 38.31443246 49.1222026 41.80108674 47.38378906 45.28735352 C46.63435726 46.79121979 45.88564646 48.2954456 45.13769531 49.80004883 C44.05727325 51.97313774 42.97419242 54.14488432 41.890625 56.31640625 C41.56128967 56.98023819 41.23195435 57.64407013 40.89263916 58.32801819 C34.83604445 70.44263703 34.83604445 70.44263703 31 73 C27.5625 73.4375 27.5625 73.4375 24 73 C20.15260936 69.07610422 18.00605028 64.32004557 15.671875 59.41796875 C15.27800598 58.60378983 14.88413696 57.7896109 14.47833252 56.95075989 C13.22954158 54.36585571 11.98966448 51.77679143 10.75 49.1875 C9.90162789 47.42745168 9.05267571 45.66768285 8.203125 43.90820312 C6.12868726 39.60867522 4.06222977 35.30539581 2 31 C1.91959473 32.1645874 1.83918945 33.3291748 1.75634766 34.52905273 C1.45378787 38.8850212 1.14225445 43.24031086 0.828125 47.59545898 C0.69387221 49.47386854 0.56199378 51.35244947 0.43261719 53.23120117 C0.24531001 55.94499396 0.04922929 58.65803816 -0.1484375 61.37109375 C-0.20373627 62.19959335 -0.25903503 63.02809296 -0.31600952 63.88169861 C-0.62055904 67.94914197 -1.07301126 71.96234654 -1.80322266 75.97680664 C-2.00052475 77.06464195 -2.00052475 77.06464195 -2.20181274 78.17445374 C-3 80 -3 80 -4.88729858 81.22801208 C-7.79945339 82.29212285 -9.92274998 82.38465625 -13 82 C-15.82074413 79.87228215 -16.8884037 78.71262296 -17.44116211 75.18286133 C-17.39100952 73.49326294 -17.39100952 73.49326294 -17.33984375 71.76953125 C-17.32436996 71.12852982 -17.30889618 70.48752838 -17.29295349 69.82710266 C-17.22483924 67.54926122 -17.1164955 65.27587735 -17 63 C-16.93392548 61.6648233 -16.93392548 61.6648233 -16.86651611 60.30267334 C-16.55103853 54.16844506 -16.17425485 48.03908639 -15.77319336 41.90991211 C-15.56178569 38.67657511 -15.35746774 35.44284842 -15.15429688 32.20898438 C-15.02124368 30.12236963 -14.887794 28.03578012 -14.75390625 25.94921875 C-14.6934462 24.99794601 -14.63298615 24.04667328 -14.57069397 23.0665741 C-14.39372643 20.37658728 -14.19902944 17.68843462 -14 15 C-13.94149872 14.07796783 -13.88299744 13.15593567 -13.82272339 12.20596313 C-13.75481598 11.31662079 -13.68690857 10.42727844 -13.61694336 9.51098633 C-13.56138779 8.7179158 -13.50583221 7.92484528 -13.44859314 7.10774231 C-12.92005825 4.62438879 -12.21291303 3.60507046 -10.375 1.875 C-6.44619886 -0.3076673 -4.42627318 -0.64382155 0 0 Z " fill="#4AB09E" transform="translate(277,611)"/>
<path d="M0 0 C0.66 -0.0103125 1.32 -0.020625 2 -0.03125 C4.99362127 0.76393065 6.09619012 2.06580392 8 4.5 C8.39494368 7.15554778 8.54789245 9.39748585 8.51757812 12.05078125 C8.5245874 12.80571869 8.53159668 13.56065613 8.53881836 14.33847046 C8.55640198 16.83018948 8.54477511 19.32076974 8.53125 21.8125 C8.53394483 23.54598203 8.53782717 25.27946259 8.54284668 27.01293945 C8.5487422 30.64451501 8.54017726 34.2756968 8.52148438 37.90722656 C8.49869454 42.56144045 8.51181737 47.21473171 8.53577423 51.86891174 C8.55023091 55.44802803 8.54562687 59.0269257 8.53526306 62.60604858 C8.5325954 64.32205311 8.53586693 66.03807751 8.54518127 67.75405884 C8.55534508 70.15297996 8.53985007 72.55040875 8.51757812 74.94921875 C8.52567505 75.65791107 8.53377197 76.36660339 8.54211426 77.09677124 C8.48470716 80.43566045 8.20047952 82.23020209 6.18640137 84.94067383 C2.9861209 87.22309149 0.83144148 87.04734878 -3 86.5 C-5.4375 84.75 -5.4375 84.75 -7 82.5 C-7 81.18 -7 79.86 -7 78.5 C-7.66 78.5 -8.32 78.5 -9 78.5 C-9.495 79.985 -9.495 79.985 -10 81.5 C-11.7421875 82.6328125 -11.7421875 82.6328125 -13.875 83.625 C-14.57367188 83.95757813 -15.27234375 84.29015625 -15.9921875 84.6328125 C-22.78553078 87.5669024 -30.80431878 87.71007518 -37.8984375 85.6640625 C-45.53855107 82.16136428 -50.73406783 76.62219196 -54.4375 69.125 C-57.35467691 60.93153791 -57.5712314 50.59873905 -55.01171875 42.29296875 C-53.83381028 39.86056953 -52.55423018 37.70673498 -51 35.5 C-50.1646875 34.13875 -50.1646875 34.13875 -49.3125 32.75 C-42.30995217 25.93671022 -34.82035868 23.14102287 -25.21875 23.2109375 C-18.85198554 23.78271004 -13.43356705 25.88646975 -9 30.5 C-8.9906543 29.73333008 -8.98130859 28.96666016 -8.97167969 28.17675781 C-8.91797227 24.70051897 -8.83432424 21.22562526 -8.75 17.75 C-8.73582031 16.5434375 -8.72164063 15.336875 -8.70703125 14.09375 C-8.67480469 12.93359375 -8.64257812 11.7734375 -8.609375 10.578125 C-8.58842773 9.50981445 -8.56748047 8.44150391 -8.54589844 7.34082031 C-7.64112136 2.63241865 -4.85321779 -0.07583153 0 0 Z " fill="#4AB09F" transform="translate(489,606.5)"/>
<path d="M0 0 C6.36207489 5.23103935 12.13872726 11.27701462 13.08984375 19.796875 C13.27292278 24.74733197 13.12656501 28.36111479 9.8125 32.3125 C6.37645235 34.03052382 2.42811104 33.4321618 -1.3515625 33.41015625 C-2.25877045 33.4087413 -3.16597839 33.40732635 -4.10067749 33.40586853 C-7.00465155 33.40026096 -9.90854915 33.38770718 -12.8125 33.375 C-14.77864472 33.36998598 -16.74479065 33.3654229 -18.7109375 33.36132812 C-23.5364879 33.35028906 -28.36198097 33.33301935 -33.1875 33.3125 C-32.56439941 34.435354 -31.94129883 35.55820801 -31.29931641 36.71508789 C-30.94882233 37.34669327 -30.59832825 37.97829865 -30.23721313 38.62904358 C-28.09326217 42.06736201 -24.95781531 43.21579899 -21.1875 44.3125 C-14.6725452 45.33013384 -10.04783819 44.09538306 -4.22265625 41.21875 C-1.35276591 39.94079499 0.73171882 39.73933141 3.8125 40.3125 C6.25 41.9375 6.25 41.9375 7.8125 44.3125 C7.875 47.3125 7.875 47.3125 6.8125 50.3125 C-0.79485283 57.91985283 -9.93846755 58.60017265 -20.14038086 58.6315918 C-26.03504014 58.52663233 -30.23754785 57.42419191 -35.1875 54.3125 C-35.80882812 53.97347656 -36.43015625 53.63445313 -37.0703125 53.28515625 C-43.56187714 49.33682364 -46.7693971 42.79329804 -49.5625 35.9375 C-51.33087882 25.68090286 -50.68512107 16.79135162 -44.64453125 8.08984375 C-33.17273149 -5.95457929 -15.84334966 -8.3876557 0 0 Z " fill="#4CB1A1" transform="translate(412.1875,634.6875)"/>
<path d="M0 0 C7.36198467 5.10370716 11.17972148 10.53916445 14 19 C14.52482505 24.38954957 14.55572612 28.6237217 11 33 C7.61606992 34.69196504 3.77522209 34.11986549 0.0546875 34.09765625 C-0.8303244 34.0962413 -1.7153363 34.09482635 -2.62716675 34.09336853 C-5.45981191 34.0877614 -8.29237864 34.07520771 -11.125 34.0625 C-13.04296761 34.05748592 -14.96093646 34.05292285 -16.87890625 34.04882812 C-21.58596782 34.03778966 -26.2929706 34.02052025 -31 34 C-28.87371505 38.51835552 -27.18398305 41.17581144 -23 44 C-15.75136637 46.41621121 -9.72104006 45.21580645 -3.03515625 41.90234375 C-0.19483231 40.64300626 1.9481933 40.50319426 5 41 C7.375 42.125 7.375 42.125 9 44 C9.6875 46.8125 9.6875 46.8125 9 50 C4.77408831 55.58954454 -1.27111766 57.94432076 -8 59 C-18.81726754 60.19794078 -27.88777351 59.60142724 -37 53 C-43.86489091 47.15860192 -47.45324521 40.07553507 -48.4140625 31.15625 C-48.97769018 20.37958655 -46.65501465 12.80908747 -39.4375 4.6875 C-28.32987892 -5.58652851 -13.20521395 -7.03750923 0 0 Z " fill="#F57D5C" transform="translate(752,634)"/>
<path d="M0 0 C0.89009766 -0.01998047 1.78019531 -0.03996094 2.69726562 -0.06054688 C10.36693581 -0.05494449 16.36117815 1.87644252 22.375 6.6875 C27.53949513 13.18000816 29.17733242 18.81629472 29.12890625 27.046875 C29.13820412 28.38072235 29.13820412 28.38072235 29.14768982 29.74151611 C29.15475016 31.60712598 29.15168068 33.47279935 29.13891602 35.33837891 C29.12496727 38.19420056 29.15927333 41.04679397 29.19726562 43.90234375 C29.19821617 45.72135497 29.19636145 47.54037028 29.19140625 49.359375 C29.20466446 50.21045837 29.21792267 51.06154175 29.23158264 51.93841553 C29.13889346 57.81585573 29.13889346 57.81585573 26.21459961 60.96972656 C22.95060377 62.77614679 21.23344498 63.14044691 17.5625 62.4375 C15.1875 60.0625 15.1875 60.0625 13.5625 57.4375 C13.5625 56.7775 13.5625 56.1175 13.5625 55.4375 C12.0465625 56.613125 12.0465625 56.613125 10.5 57.8125 C3.42041152 62.79077636 -4.01252835 63.13303694 -12.4375 62.4375 C-18.32376648 61.35654956 -21.59719816 58.7676843 -25.30859375 54.15625 C-28.53903108 49.23793711 -27.96733981 43.07171207 -27.4375 37.4375 C-24.70666305 31.55569734 -20.49264917 28.57711914 -14.484375 26.3359375 C-9.24743217 24.90460317 -3.88412079 25.22560544 1.5 25.3125 C2.56541016 25.32152344 3.63082031 25.33054687 4.72851562 25.33984375 C7.34008034 25.36326586 9.95116937 25.39606548 12.5625 25.4375 C11.71398481 19.75248643 11.71398481 19.75248643 8.3046875 15.4609375 C3.06778703 13.50642479 -3.184449 13.37949837 -8.52734375 15.1171875 C-9.09582031 15.38789062 -9.66429687 15.65859375 -10.25 15.9375 C-13.95951034 17.68315193 -16.38356817 17.90526137 -20.4375 17.4375 C-22.375 16.375 -22.375 16.375 -23.4375 14.4375 C-23.9375 11 -23.9375 11 -23.4375 7.4375 C-17.36733214 0.60856116 -8.54250018 -0.06774874 0 0 Z " fill="#F47C5B" transform="translate(617.4375,630.5625)"/>
<path d="M0 0 C2.34549674 3.51824511 2.57991403 4.85775694 2 9 C-0.0625 11.9375 -0.0625 11.9375 -3 14 C-8.54887784 14.10088869 -11.57116527 12.10960736 -16 9 C-22.88431692 6.28098407 -30.5158501 5.50971873 -37.6328125 7.875 C-43.70563476 11.0040474 -48.5229399 15.39393604 -51.1328125 21.765625 C-53.12828256 29.20818903 -53.5470511 38.08086827 -49.9375 45.0625 C-46.51526665 50.21529454 -41.81416205 54.71770903 -36 57 C-25.81707883 58.10293605 -17.5202937 56.6801958 -9 51 C-5.08945759 50.57339537 -2.87969422 50.41353719 0.4375 52.625 C2.49791771 55.75683492 2.6767545 57.31544773 2 61 C-2.14066121 66.71125684 -9.53961557 70.70002757 -16.23828125 72.65234375 C-29.98348997 74.38264584 -42.20102938 74.04447061 -53.6875 65.8125 C-61.85615738 59.01248892 -68.90110934 49.79534365 -70.25439453 38.96386719 C-71.23693816 25.34377968 -68.9471285 14.64708292 -60 4 C-43.96360719 -12.77406688 -18.39443791 -13.58358492 0 0 Z " fill="#F47B5A" transform="translate(580,620)"/>
<path d="M0 0 C1.21000571 4.54875384 2.41841154 9.09792897 3.62548828 13.64746094 C4.0342542 15.18728438 4.44341829 16.72700219 4.85302734 18.26660156 C7.34198793 27.62313645 9.77196821 36.99090436 12.10253906 46.38818359 C12.88547297 49.53908791 13.68054908 52.68640734 14.484375 55.83203125 C14.69707031 56.66927734 14.90976562 57.50652344 15.12890625 58.36914062 C15.55604255 60.0494787 15.98588249 61.72913109 16.41796875 63.40820312 C16.62550781 64.22869141 16.83304688 65.04917969 17.046875 65.89453125 C17.23088867 66.61487549 17.41490234 67.33521973 17.60449219 68.07739258 C18 70 18 70 18 73 C10.74 73 3.48 73 -4 73 C-4.50789062 70.6796875 -5.01578125 68.359375 -5.5390625 65.96875 C-6.23257567 62.81210244 -6.92849293 59.65598824 -7.625 56.5 C-7.80507599 55.68366089 -7.98515198 54.86732178 -8.17068481 54.02624512 C-10.65866774 42.77153926 -13.25111659 31.56083086 -16.18408203 20.41210938 C-17.51944135 15.26808131 -18.46483739 10.29011317 -19 5 C-18.27554688 4.97421875 -17.55109375 4.9484375 -16.8046875 4.921875 C-10.77039158 4.56786297 -4.90980182 0 0 0 Z " fill="#F67959" transform="translate(599,474)"/>
<path d="M0 0 C2.96991701 0.60983922 4.20486489 1.94625545 5.90234375 4.390625 C6.65234375 6.640625 6.65234375 6.640625 6.90234375 8.390625 C7.62421875 7.6275 8.34609375 6.864375 9.08984375 6.078125 C14.27390723 1.12446434 17.53951579 0.05654744 24.59765625 -0.0078125 C27.38697819 0.47440926 28.27404855 1.0964455 29.90234375 3.390625 C30.37488716 7.64351571 30.62726899 10.10553025 28.52734375 13.828125 C25.12288741 15.85458711 22.2740032 15.80800398 18.375 16.06640625 C14.69794289 16.54854802 12.62847785 17.9304552 9.90234375 20.390625 C7.07741352 25.00795957 6.54279798 28.46202008 6.56640625 33.8359375 C6.55390389 35.25651507 6.54086725 36.67708803 6.52734375 38.09765625 C6.52340423 40.31412982 6.52743913 42.53015081 6.54199219 44.74658203 C6.55056263 46.90204752 6.52890098 49.05563746 6.50390625 51.2109375 C6.50729004 52.49242676 6.51067383 53.77391602 6.51416016 55.09423828 C5.90234375 58.390625 5.90234375 58.390625 3.55615234 60.81201172 C0.32746781 62.73258892 -1.39855121 62.94155554 -5.09765625 62.390625 C-8.23357195 60.61078095 -8.93868361 59.86754293 -10.09765625 56.390625 C-10.2048561 54.70949349 -10.25633647 53.02453418 -10.2746582 51.34008789 C-10.28749344 50.31214615 -10.30032867 49.28420441 -10.31355286 48.22511292 C-10.32093979 47.11570847 -10.32832672 46.00630402 -10.3359375 44.86328125 C-10.34400925 43.72281845 -10.35208099 42.58235565 -10.36039734 41.40733337 C-10.37423201 38.99398314 -10.38495692 36.5806134 -10.39282227 34.16723633 C-10.41007216 30.47114295 -10.45396942 26.77593543 -10.49804688 23.08007812 C-10.50817054 20.73698575 -10.51668766 18.39388577 -10.5234375 16.05078125 C-10.54094559 14.94340103 -10.55845367 13.83602081 -10.57649231 12.69508362 C-10.57356674 11.66398972 -10.57064117 10.63289581 -10.56762695 9.57055664 C-10.57349319 8.66471329 -10.57935944 7.75886993 -10.58540344 6.82557678 C-9.40895697 0.95247185 -5.30397554 -0.27655738 0 0 Z " fill="#F57B5B" transform="translate(671.09765625,630.609375)"/>
<path d="M0 0 C10.89 0.495 10.89 0.495 22 1 C19.97770647 7.0668806 17.49063519 12.61452281 14.75 18.375 C14.28464844 19.37789063 13.81929687 20.38078125 13.33984375 21.4140625 C7.8089996 33.05473724 0.57310084 43.51506292 -11.84765625 48.3984375 C-16.18403543 49.61042007 -19.24449527 48.91223549 -23.1875 46.86328125 C-30.89197204 42.11305778 -36.24917612 35.6013182 -41 28 C-40.67 27.34 -40.34 26.68 -40 26 C-39.278125 26.495 -38.55625 26.99 -37.8125 27.5 C-32.57672108 30.08679814 -26.65852131 29.7194208 -21 29 C-14.33571746 26.70050315 -11.0928998 22.05286694 -8 16 C-7.67435059 15.36400879 -7.34870117 14.72801758 -7.01318359 14.07275391 C-4.63069162 9.40230486 -2.31383322 4.70610147 0 0 Z " fill="#F67656" transform="translate(544,479)"/>
<path d="M0 0 C0.66 0 1.32 0 2 0 C4.73885679 9.44976615 6.8390482 19.01866521 8.9375 28.625 C9.61162686 31.70088617 10.28763785 34.77635284 10.96484375 37.8515625 C11.21263077 38.97948212 11.21263077 38.97948212 11.46542358 40.13018799 C12.83701906 46.34128376 14.28759947 52.53241569 15.78440857 58.71450806 C17 63.7875236 17 63.7875236 17 66 C10.4 66 3.8 66 -3 66 C-5.27059573 60.32351068 -6.7252667 54.67462528 -8.1875 48.75 C-8.47302734 47.65558594 -8.75855469 46.56117188 -9.05273438 45.43359375 C-12.02621448 33.35156998 -9.82735164 25.57754251 -5.5 14.0625 C-5.08363281 12.92748047 -4.66726563 11.79246094 -4.23828125 10.62304688 C-1.23028274 2.46056548 -1.23028274 2.46056548 0 0 Z " fill="#F7795A" transform="translate(665,481)"/>
<path d="M0 0 C3.72091916 1.87656745 6.35707788 4.49021675 8.203125 8.23046875 C9.81785581 13.37861051 9.96248415 18.71115166 7.87890625 23.7265625 C5.04241989 28.49502099 2.20966231 31.56683131 -3.1328125 33.34765625 C-7.79975772 33.88991084 -11.21052298 33.81750185 -15.4453125 31.66015625 C-19.86213768 27.85963226 -22.74872894 24.62938288 -23.44140625 18.7109375 C-23.72398783 12.02317354 -23.17108249 8.06013094 -18.8359375 2.87109375 C-13.63436008 -1.78169339 -6.52277302 -1.99506061 0 0 Z " fill="#F9FDFB" transform="translate(472.1328125,645.65234375)"/>
<path d="M0 0 C4.70062157 1.62385109 7.37578102 3.76087703 10 8 C10 9.65 10 11.3 10 13 C0.1 13 -9.8 13 -20 13 C-18.95763751 6.74582506 -18.51143164 5.86694141 -14 2 C-9.52624325 -0.9825045 -5.24543192 -0.48095651 0 0 Z " fill="#F6FCF9" transform="translate(399,644)"/>
<path d="M0 0 C2.93102294 2.02380155 4.74817384 3.7807039 6.625 6.8125 C6.625 8.4625 6.625 10.1125 6.625 11.8125 C-3.275 11.8125 -13.175 11.8125 -23.375 11.8125 C-22.29797709 6.42738546 -21.08374828 4.6937482 -17.375 0.8125 C-12.04437356 -2.49539398 -5.74571468 -2.02164035 0 0 Z " fill="#FBF9F7" transform="translate(743.375,645.1875)"/>
<path d="M0 0 C0.87914062 0.02255859 1.75828125 0.04511719 2.6640625 0.06835938 C4.81845007 0.12690252 6.9719531 0.21657217 9.125 0.3125 C9.3203125 6.96875 9.3203125 6.96875 7.5625 10.0625 C3.59972545 13.72044573 -0.58270834 15.43367153 -5.9375 15.8125 C-11.02918116 15.16593731 -12.49590351 14.11398355 -15.875 10.3125 C-16.625 7.8125 -16.625 7.8125 -15.875 5.3125 C-10.90007843 -0.08632967 -7.12909323 -0.34893905 0 0 Z " fill="#FAF8F6" transform="translate(620.875,665.6875)"/>
<path d="M0 0 C0.66 0 1.32 0 2 0 C2.99379143 4.09938965 3.52540554 7.79675568 3 12 C0.23437502 15.42064142 -1.24674702 16.79649742 -5.625 17.3046875 C-8.10443406 17.31173135 -10.53104755 17.21957087 -13 17 C-13.33 16.01 -13.66 15.02 -14 14 C-13.27167969 13.97035156 -12.54335938 13.94070313 -11.79296875 13.91015625 C-7.82074891 12.61571258 -6.41240948 9.83241327 -4.3125 6.4375 C-2.92293115 4.24404834 -1.50195379 2.12162038 0 0 Z " fill="#139386" transform="translate(413,475)"/>
<path d="M0 0 C0.66 0.66 1.32 1.32 2 2 C1.8945223 5.16433114 0.9480737 6.04919334 -1.375 8.25 C-4 10 -4 10 -7 10 C-6.3125 7.125 -6.3125 7.125 -5 4 C-2.375 2.625 -2.375 2.625 0 2 C0 1.34 0 0.68 0 0 Z " fill="#075D5D" transform="translate(414,482)"/>
<path d="M0 0 C0.66 0 1.32 0 2 0 C2.33 2.97 2.66 5.94 3 9 C1.35 9.33 -0.3 9.66 -2 10 C-3.04127245 6.6868604 -3.18574123 5.39801692 -1.6875 2.1875 C-1.130625 1.465625 -0.57375 0.74375 0 0 Z " fill="#2D887E" transform="translate(413,475)"/>
<path d="M0 0 C3.82097239 0.53069061 6.06171403 1.49701566 9 4 C3.33357449 5.22517308 -2.23708518 5.09228867 -8 5 C-8 4.67 -8 4.34 -8 4 C-7.36191406 3.95101562 -6.72382813 3.90203125 -6.06640625 3.8515625 C-5.24011719 3.77679687 -4.41382813 3.70203125 -3.5625 3.625 C-2.73878906 3.55539062 -1.91507813 3.48578125 -1.06640625 3.4140625 C-0.38449219 3.27742187 0.29742188 3.14078125 1 3 C1.33 2.34 1.66 1.68 2 1 C1.34 0.67 0.68 0.34 0 0 Z " fill="#6CBBAD" transform="translate(518,525)"/>
<path d="M0 0 C0.66 0 1.32 0 2 0 C1.7589852 6.14587738 1.7589852 6.14587738 -0.40234375 8.578125 C-1.88046971 9.78844931 -3.43647953 10.90220903 -5 12 C-3.41037341 7.96479403 -1.71767682 3.98188718 0 0 Z " fill="#53BCA6" transform="translate(382,465)"/>
<path d="M0 0 C3.465 1.485 3.465 1.485 7 3 C6.34 4.65 5.68 6.3 5 8 C2.74754119 5.31158141 1.11786042 3.35358125 0 0 Z " fill="#E48164" transform="translate(503,505)"/>
<path d="M0 0 C-0.8125 1.9375 -0.8125 1.9375 -2 4 C-2.99 4.33 -3.98 4.66 -5 5 C-5 7.31 -5 9.62 -5 12 C-5.33 12 -5.66 12 -6 12 C-6.48979592 4.65306122 -6.48979592 4.65306122 -4.125 1.5 C-2 0 -2 0 0 0 Z " fill="#58BAA7" transform="translate(270,612)"/>
<path d="M0 0 C0.33 0.66 0.66 1.32 1 2 C0.06553465 4.03144641 -0.93224776 6.03533587 -2 8 C-2.99 8 -3.98 8 -5 8 C-4.34 6.35 -3.68 4.7 -3 3 C-2.34 3 -1.68 3 -1 3 C-0.67 2.01 -0.34 1.02 0 0 Z " fill="#62B8A9" transform="translate(372,458)"/>
<path d="M0 0 C0.99 0.33 1.98 0.66 3 1 C1.35 2.65 -0.3 4.3 -2 6 C-1.125 1.125 -1.125 1.125 0 0 Z " fill="#40AF9A" transform="translate(371,639)"/>
<path d="M0 0 C2.475 0.495 2.475 0.495 5 1 C5.66 2.98 6.32 4.96 7 7 C5.83040013 6.02433888 4.66438823 5.044375 3.5 4.0625 C2.8503125 3.51722656 2.200625 2.97195313 1.53125 2.41015625 C1.0259375 1.94480469 0.520625 1.47945313 0 1 C0 0.67 0 0.34 0 0 Z " fill="#EC7E5C" transform="translate(509,448)"/>
</svg>
